<svg width="552" height="500" viewBox="0 0 552 500" fill="none" xmlns="http://www.w3.org/2000/svg">
<g id="undraw_listening_1u79 1">
<path id="Vector" d="M534.464 484.688L548.792 460.504L534.466 487.311L534.467 490.055C533.439 490.05 532.422 490.016 531.414 489.953L532.476 454.697L532.46 454.425L532.486 454.372L532.587 451.041L517.44 424.758L532.594 448.547L532.642 449.252L533.444 422.615L520.407 395.403L533.53 417.935L533.959 362.733L533.961 362.549L533.964 362.73L534.4 406.247L546.716 388.745L534.401 409.996L534.42 433.832L545.826 410.728L534.425 437.336L534.436 450.591L551.009 418.417L534.438 455.214L534.464 484.688Z" fill="#D0CDE1"/>
<path id="Vector_2" d="M104.213 477.632L145.492 408.818L104.18 485.127L104.144 492.966C101.208 492.931 98.3015 492.814 95.425 492.614L98.9624 391.912L98.9197 391.133L98.9956 390.985L99.3323 381.469L56.435 306.085L99.3895 374.343L99.5147 376.358L102.187 300.274L65.3326 222.277L102.5 286.904L104.517 129.203L104.526 128.678L104.531 129.195L105.153 253.531L140.592 203.767L105.102 264.24L104.816 332.339L137.733 266.555L104.78 342.351L104.621 380.218L152.43 288.622L104.56 393.428L104.213 477.632Z" fill="#575A89"/>
<path id="Vector_3" d="M276 500C428.431 500 552 495.027 552 488.892C552 482.758 428.431 477.785 276 477.785C123.569 477.785 0 482.758 0 488.892C0 495.027 123.569 500 276 500Z" fill="#D0CDE1"/>
<path id="Vector_4" d="M428.07 464.451C428.096 460.477 427.39 456.543 426.001 452.913C423.085 455.35 420.682 458.525 418.973 462.2C417.264 458.525 414.861 455.35 411.945 452.913C410.556 456.543 409.85 460.477 409.876 464.451C406.935 462.537 403.68 461.369 400.324 461.023C400.324 461.023 400.953 469.998 406.103 475.837C410.682 481.028 417.292 481.992 418.702 482.142L418.741 482.173L418.752 482.147C418.895 482.161 418.973 482.166 418.973 482.166C418.973 482.166 418.961 481.997 418.927 481.69C418.942 481.651 418.957 481.609 418.973 481.565C418.989 481.609 419.004 481.651 419.019 481.69C418.985 481.997 418.973 482.166 418.973 482.166C418.973 482.166 419.051 482.161 419.194 482.147L419.205 482.173L419.244 482.142C420.653 481.992 427.264 481.028 431.843 475.837C436.993 469.998 437.622 461.023 437.622 461.023C434.266 461.369 431.011 462.537 428.07 464.451V464.451Z" fill="#6C63FF"/>
<path id="note1" d="M434.173 40.6133L434.202 40.6074L429.856 11.0128L405.822 19.9056L409.418 46.3758C408.18 45.4637 406.703 45.0943 405.252 45.3334C403.802 45.5725 402.471 46.4047 401.499 47.6811C400.526 48.9575 399.975 50.5951 399.944 52.3013C399.912 54.0074 400.403 55.671 401.327 56.9947C402.252 58.3184 403.551 59.2161 404.992 59.5273C406.432 59.8385 407.921 59.543 409.192 58.6935C410.463 57.8441 411.433 56.496 411.929 54.8903C412.425 53.2845 412.414 51.5256 411.9 49.9279L411.922 49.9238L408.062 21.5167L428.274 14.038L431.71 37.4326C430.442 36.559 428.947 36.2435 427.497 36.5431C426.046 36.8428 424.735 37.7379 423.803 39.0661C422.87 40.3944 422.376 42.0679 422.412 43.7833C422.447 45.4988 423.009 47.1427 423.996 48.4172C424.982 49.6916 426.328 50.5122 427.79 50.7303C429.251 50.9483 430.731 50.5494 431.962 49.6057C433.192 48.6621 434.092 47.2362 434.498 45.5866C434.903 43.9369 434.788 42.1726 434.173 40.6133V40.6133Z" fill="#6C63FF"/>
<path id="note2" d="M549.234 51.9381L549.264 51.9322L544.917 22.3376L520.884 31.2304L524.48 57.7006C523.241 56.7885 521.765 56.4191 520.314 56.6582C518.863 56.8973 517.533 57.7294 516.56 59.0059C515.588 60.2823 515.036 61.9199 515.005 63.626C514.974 65.3322 515.464 66.9958 516.389 68.3195C517.314 69.6433 518.612 70.5409 520.053 70.8521C521.494 71.1634 522.982 70.8678 524.253 70.0184C525.524 69.1689 526.494 67.8209 526.99 66.2151C527.486 64.6093 527.476 62.8504 526.961 61.2527L526.983 61.2486L523.124 32.8415L543.336 25.3628L546.772 48.7574C545.504 47.8838 544.009 47.5683 542.558 47.868C541.108 48.1676 539.797 49.0627 538.864 50.3909C537.931 51.7192 537.438 53.3927 537.474 55.1081C537.509 56.8236 538.071 58.4675 539.058 59.7419C540.044 61.0164 541.39 61.837 542.851 62.055C544.313 62.273 545.793 61.8741 547.023 60.9305C548.254 59.9869 549.154 58.561 549.559 56.9113C549.965 55.2617 549.849 53.4973 549.234 51.9381V51.9381Z" fill="#6C63FF"/>
<path id="halfnote1" d="M466.995 73.1738L467.012 73.1706L463.916 50.3783L462.386 50.66L465.071 70.4195C464.11 69.7124 462.966 69.426 461.841 69.6114C460.716 69.7968 459.684 70.4421 458.93 71.4318C458.176 72.4215 457.749 73.6912 457.724 75.0141C457.7 76.337 458.081 77.6269 458.798 78.6533C459.515 79.6797 460.522 80.3756 461.639 80.6169C462.756 80.8582 463.91 80.6291 464.895 79.9704C465.881 79.3118 466.633 78.2665 467.017 77.0215C467.402 75.7764 467.394 74.4126 466.995 73.1738V73.1738Z" fill="#6C63FF"/>
<path id="halfnote2" d="M493.264 44.8765C493.267 43.6411 492.916 42.4399 492.268 41.462C491.62 40.484 490.711 39.785 489.684 39.4749C488.658 39.1647 487.572 39.2612 486.597 39.749C485.623 40.2368 484.815 41.0883 484.302 42.1693C483.789 43.2504 483.599 44.4996 483.762 45.7202C483.925 46.9409 484.432 48.0636 485.204 48.9116C485.975 49.7596 486.966 50.2847 488.022 50.4042C489.078 50.5237 490.138 50.2308 491.035 49.5717L488.35 69.3312L489.88 69.6129L492.976 46.8205L492.959 46.8174C493.16 46.1969 493.263 45.5395 493.264 44.8765V44.8765Z" fill="#6C63FF"/>
<path id="Vector_5" d="M294.306 401.735L303.366 417.564L316.956 405.253L307.896 392.062L294.306 401.735Z" fill="#FFB8B8"/>
<path id="Vector_6" d="M305.116 409.071C305.116 409.071 292.14 409.774 295.798 417.762C299.455 425.751 302.309 470.829 312.748 468.217C323.188 465.605 332.653 451.789 332.537 442.278C332.421 432.767 331.114 428.642 331.114 428.642C331.114 428.642 328.315 422.347 330.179 420.609C332.042 418.87 332.746 407.882 328.307 404.541C323.868 401.199 311.039 396.777 311.039 396.777C311.039 396.777 309.74 410.458 305.116 409.071Z" fill="#2F2E41"/>
<path id="Vector_7" d="M311.671 438.67L308.651 458.016L324.506 459.774V444.825L311.671 438.67Z" fill="#FFB8B8"/>
<path id="Vector_8" d="M279.205 176.615C279.205 176.615 270.9 209.152 268.635 228.498C268.635 228.498 223.333 299.728 231.638 330.506C239.944 361.284 264.104 422.84 264.104 422.84C264.104 422.84 304.876 403.494 313.181 392.942L282.98 342.817C282.98 342.817 287.51 336.662 280.715 333.144C273.92 329.627 279.96 325.23 279.96 325.23C279.96 325.23 292.795 275.105 305.631 269.829L350.177 259.276C350.177 259.276 347.157 184.529 336.587 171.339C336.587 171.339 283.735 172.218 279.205 176.615Z" fill="#2F2E41"/>
<path id="Vector_9" d="M315.446 450.101C315.446 450.101 307.896 437.79 304.121 445.704C300.346 453.619 269.39 480.879 276.94 489.673C284.49 498.467 299.591 500.226 306.386 494.949C313.181 489.673 315.446 486.156 315.446 486.156C315.446 486.156 318.466 480 320.731 480.879C322.996 481.759 331.302 476.483 331.302 470.327C331.302 464.171 327.527 449.222 327.527 449.222C327.527 449.222 316.956 455.377 315.446 450.101Z" fill="#2F2E41"/>
<path id="Vector_10" d="M304.121 263.673L314.691 370.078C314.691 370.078 308.651 399.977 307.141 422.84C305.631 445.704 307.141 444.825 307.141 444.825C307.141 444.825 341.117 460.654 347.157 450.101C353.197 439.549 350.177 259.276 350.177 259.276L332.057 239.93L304.121 263.673Z" fill="#2F2E41"/>
<path id="Vector_11" d="M285.689 26.1305C293.527 4.59022 313.48 0.522128 313.48 0.522128C313.48 0.522128 332.691 -5.4472 348.735 22.9815C363.69 49.4793 382.974 74.3055 358.518 84.8821L352.057 69.0799L351.282 87.2656C347.726 88.1282 344.132 88.7635 340.516 89.1686C313.388 92.3784 287.817 97.7153 287.343 86.297C286.714 71.118 278.147 46.8565 285.689 26.1305Z" fill="#2F2E41"/>
<path id="Vector_12" d="M317.711 68.4516C329.804 68.4516 339.607 57.034 339.607 42.9497C339.607 28.8654 329.804 17.4478 317.711 17.4478C305.619 17.4478 295.816 28.8654 295.816 42.9497C295.816 57.034 305.619 68.4516 317.711 68.4516Z" fill="#FFB8B8"/>
<path id="Vector_13" d="M311.293 59.2181C311.293 59.2181 310.916 85.1598 308.651 91.3154C306.386 97.471 349.045 86.4788 349.045 86.4788C349.045 86.4788 333.944 74.1676 331.679 57.4594L311.293 59.2181Z" fill="#FFB8B8"/>
<path id="Vector_14" d="M314.691 80.7629L310.568 77.2307L281.47 79.0042L275.43 156.389C275.43 156.389 258.064 180.132 279.205 180.132C300.346 180.132 319.976 168.701 335.077 176.615C350.177 184.529 363.013 93.0742 363.013 93.0742L340.44 77.2307C340.44 77.2307 330.547 91.3154 314.691 80.7629Z" fill="#575A89"/>
<path id="Vector_15" d="M289.775 143.199L332.057 153.751V165.183L289.775 166.942C289.775 166.942 285.245 146.716 289.775 143.199Z" fill="#FFB8B8"/>
<path id="Vector_16" d="M289.775 83.401L281.47 79.0041C281.47 79.0041 271.655 81.6423 270.9 91.3154C270.145 100.989 255.799 163.424 267.125 166.062C278.45 168.701 293.55 168.701 293.55 168.701C293.55 168.701 283.735 152.872 295.816 144.078L286.755 138.802C286.755 138.802 277.695 115.059 283.735 102.747C289.775 90.436 289.775 83.401 289.775 83.401Z" fill="#575A89"/>
<path id="Vector_17" d="M290.121 18.3049L310.116 6.1055L337.731 11.0961L343.443 40.4855L329.222 39.8484L325.249 29.0513V39.6703L318.687 39.3763L314.877 22.1863L312.497 40.4855L289.168 39.9309L290.121 18.3049Z" fill="#2F2E41"/>
<path id="Vector_18" d="M339.733 48.6706C341.957 48.6706 343.76 44.996 343.76 40.4631C343.76 35.9302 341.957 32.2556 339.733 32.2556C337.509 32.2556 335.706 35.9302 335.706 40.4631C335.706 44.996 337.509 48.6706 339.733 48.6706Z" fill="#FFB8B8"/>
<path id="Vector_19" d="M340.12 46.2733C341.638 46.2733 342.868 44.8403 342.868 43.0726C342.868 41.3049 341.638 39.8719 340.12 39.8719C338.602 39.8719 337.372 41.3049 337.372 43.0726C337.372 44.8403 338.602 46.2733 340.12 46.2733Z" fill="white"/>
<path id="Vector_20" d="M341.3 44.1515C341.547 44.1515 341.747 43.4527 341.747 42.5906C341.747 41.7285 341.547 41.0297 341.3 41.0297C341.053 41.0297 340.853 41.7285 340.853 42.5906C340.853 43.4527 341.053 44.1515 341.3 44.1515Z" fill="#2F2E41"/>
<path id="Vector_21" d="M341.229 52.3631C341.042 52.3631 340.863 52.2768 340.732 52.1232C340.6 51.9696 340.526 51.7614 340.526 51.5442L339.823 44.9932H341.932V51.5442C341.932 51.6517 341.914 51.7582 341.878 51.8576C341.843 51.9569 341.791 52.0472 341.726 52.1232C341.661 52.1993 341.583 52.2596 341.498 52.3007C341.412 52.3419 341.321 52.3631 341.229 52.3631V52.3631Z" fill="white"/>
<path id="Vector_22" opacity="0.1" d="M286.395 107.26L279.266 143.244H295.902L282.831 139.784L286.395 107.26Z" fill="black"/>
<path id="Vector_23" d="M372.286 166.703L372.128 166.537L376.03 161.494C376.327 161.11 376.556 160.663 376.704 160.176C376.852 159.69 376.916 159.174 376.893 158.659C376.87 158.144 376.76 157.639 376.57 157.173C376.379 156.707 376.112 156.289 375.783 155.944L366.609 146.314C366.279 145.969 365.895 145.702 365.478 145.53C365.06 145.357 364.617 145.282 364.175 145.309C363.732 145.336 363.299 145.464 362.899 145.686C362.499 145.908 362.14 146.219 361.844 146.602L340.434 174.271C340.137 174.654 339.908 175.102 339.76 175.588C339.612 176.074 339.548 176.59 339.571 177.105C339.594 177.621 339.704 178.126 339.894 178.591C340.085 179.057 340.352 179.475 340.681 179.82L349.855 189.45C350.185 189.796 350.569 190.062 350.986 190.235C351.404 190.407 351.847 190.482 352.289 190.455C352.732 190.429 353.165 190.301 353.565 190.079C353.965 189.857 354.324 189.545 354.62 189.162L369.35 170.127L369.508 170.293L372.286 166.703Z" fill="#3F3D56"/>
<path id="Vector_24" d="M365.088 161.739C366.289 161.739 367.263 160.605 367.263 159.206C367.263 157.808 366.289 156.674 365.088 156.674C363.888 156.674 362.914 157.808 362.914 159.206C362.914 160.605 363.888 161.739 365.088 161.739Z" fill="#6C63FF"/>
<path id="Vector_25" d="M350.012 157.68C350.012 157.68 375.75 164.936 369.82 175.28C363.89 185.625 340.478 166.717 340.478 166.717L350.012 157.68Z" fill="#FFB8B8"/>
<path id="Vector_26" d="M356.217 93.0742H363.013C363.013 93.0742 370.563 102.747 369.053 111.541C367.543 120.335 363.013 161.666 363.013 161.666C363.013 161.666 340.362 186.288 329.037 173.097C317.711 159.907 326.017 147.596 326.017 147.596C326.017 147.596 341.117 161.666 349.422 143.199L356.217 93.0742Z" fill="#575A89"/>
<path id="Vector_27" d="M349.464 153.029L354.665 93.1883C354.665 93.1883 365.573 55.4109 354.925 54.485C344.277 53.5591 343.529 90.2831 343.529 90.2831L324.983 155.764C324.983 155.764 335.161 167.374 349.464 153.029Z" fill="#FFB8B8"/>
</g>
</svg>
